<svg width="14" height="20" viewBox="0 0 14 20" fill="none" xmlns="http://www.w3.org/2000/svg">
<path d="M13.4023 0H0.597722C0.26762 0 0 0.262344 0 0.585938V19.4141C0 19.6511 0.145645 19.8647 0.368994 19.9554C0.442952 19.9854 0.520616 20 0.597602 20C0.753169 20 0.906027 19.9405 1.02039 19.8284L7.00012 13.9666L12.9796 19.8284C13.1506 19.9959 13.4077 20.0461 13.631 19.9554C13.8544 19.8647 14 19.6511 14 19.4141V0.585938C14 0.262344 13.7324 0 13.4023 0ZM7.00008 12.552C6.84156 12.552 6.68954 12.6138 6.57745 12.7237L1.19544 17.9995V1.17188H12.8045V17.9994L7.42275 12.7237C7.31066 12.6138 7.15864 12.552 7.00008 12.552Z" fill="#666666"/>
</svg>
