<svg width="11" height="16" viewBox="0 0 11 16" fill="none" xmlns="http://www.w3.org/2000/svg">
<path d="M10.5304 0H0.469639C0.210273 0 0 0.209875 0 0.46875V15.5312C0 15.7208 0.114435 15.8918 0.289924 15.9643C0.348034 15.9883 0.409055 16 0.469545 16C0.591776 16 0.711878 15.9524 0.801736 15.8627L5.50009 11.1733L10.1983 15.8627C10.3326 15.9967 10.5346 16.0368 10.7101 15.9643C10.8856 15.8918 11 15.7208 11 15.5312V0.46875C11 0.209875 10.7897 0 10.5304 0ZM5.50006 10.0416C5.37551 10.0416 5.25607 10.091 5.168 10.1789L0.939277 14.3996V0.9375H10.0607V14.3995L5.83216 10.1789C5.74409 10.091 5.62464 10.0416 5.50006 10.0416Z" fill="#41A9A5"/>
</svg>
