<svg width="15" height="21" viewBox="0 0 15 21" fill="none" xmlns="http://www.w3.org/2000/svg">
<path d="M7.5 0.291016C3.36448 0.291016 0 3.65549 0 7.79097C0 12.9232 6.71176 20.4577 6.99752 20.7759C7.26593 21.0749 7.73455 21.0744 8.00248 20.7759C8.28823 20.4577 15 12.9232 15 7.79097C14.9999 3.65549 11.6355 0.291016 7.5 0.291016ZM7.5 11.5644C5.41932 11.5644 3.7266 9.87166 3.7266 7.79097C3.7266 5.71029 5.41936 4.01758 7.5 4.01758C9.58064 4.01758 11.2734 5.71033 11.2734 7.79102C11.2734 9.8717 9.58064 11.5644 7.5 11.5644Z" fill="#384352"/>
</svg>
