<svg width="26" height="18" viewBox="0 0 26 18" fill="none" xmlns="http://www.w3.org/2000/svg">
<path d="M19.2722 4.93885H3.87631L7.02622 1.88135C7.46963 1.45095 7.46963 0.753247 7.02622 0.322846C6.58268 -0.107677 5.86402 -0.107554 5.42048 0.322846L0.332557 5.26174C-0.110853 5.69214 -0.110853 6.38984 0.332557 6.82024L5.42048 11.7589C5.64225 11.9741 5.93277 12.0817 6.22329 12.0817C6.51381 12.0817 6.80432 11.974 7.02609 11.7589C7.4695 11.3285 7.4695 10.6308 7.02609 10.2004L3.87618 7.14289H19.272C21.7298 7.14289 23.7293 9.08379 23.7293 11.4694C23.7293 13.8551 21.7298 15.796 19.272 15.796H9.90655C9.27947 15.796 8.77122 16.2893 8.77122 16.898C8.77122 17.5067 9.27947 18 9.90655 18H19.272C22.9818 18 26 15.0703 26 11.4694C26 7.86851 22.9819 4.93885 19.2722 4.93885Z" fill="#CFC6B9"/>
</svg>
