<svg width="17" height="14" viewBox="0 0 17 14" fill="none" xmlns="http://www.w3.org/2000/svg">
<path d="M16.0282 12.8774L14.2796 10.1571V6.66533C14.2796 3.20354 11.4908 0.387207 8.06304 0.387207C4.6351 0.387207 1.84648 3.20354 1.84648 6.66533V10.1571L0.097851 12.8772C-0.0240286 13.0665 -0.0326245 13.3074 0.0752781 13.505C0.183181 13.7025 0.390215 13.8257 0.61549 13.8257H15.5106C15.7359 13.8257 15.9429 13.7025 16.0506 13.5052C16.1587 13.3076 16.1501 13.0668 16.0282 12.8774ZM1.74284 12.5947L2.9796 10.6706C3.0434 10.5715 3.07747 10.4558 3.07747 10.3378V6.66533C3.07747 3.88244 5.314 1.61823 8.06304 1.61823C10.8123 1.61823 13.0486 3.88247 13.0486 6.66533V10.3378C13.0486 10.4558 13.0825 10.5713 13.1463 10.6706L14.383 12.5947H1.74284Z" fill="#41A9A5"/>
</svg>
