<svg width="16" height="16" viewBox="0 0 16 16" fill="none" xmlns="http://www.w3.org/2000/svg">
<path d="M15.8523 7.21908L8.32281 0.162615C8.30965 0.148819 8.29649 0.138472 8.28003 0.128126C8.11549 -0.0374218 7.85222 -0.0443196 7.67781 0.117779L0.148338 7.17424C-0.0359498 7.34669 -0.0491132 7.63985 0.112139 7.83299C0.200992 7.93645 0.322753 7.98819 0.444515 7.98819C0.549822 7.98819 0.655129 7.95025 0.740691 7.87092L2.09652 6.59828V6.8466V10.53V14.8274C2.09652 15.4723 2.59673 16 3.21541 16C3.22528 16 3.23187 16 3.24174 16C3.25161 16 3.25819 16 3.26807 16H5.59141C6.1706 16 6.64119 15.5068 6.64119 14.8998V10.7163C6.64119 10.6232 6.71359 10.5473 6.80244 10.5473H9.20147C9.29032 10.5473 9.36272 10.6232 9.36272 10.7163V14.8998C9.36272 15.5068 9.83331 16 10.4125 16H12.7885C13.4138 16 13.9074 15.3551 13.9074 14.5308V10.6956V9.52295V6.64311L15.2632 7.91576C15.3488 7.99508 15.4541 8.03302 15.5594 8.03302C15.6812 8.03302 15.8029 7.98129 15.8918 7.87782C16.0497 7.68468 16.0333 7.39152 15.8523 7.21908ZM13.0156 9.5195V10.6921V14.5239C13.0156 14.8584 12.8576 15.0619 12.7852 15.0619H10.4092C10.3204 15.0619 10.248 14.986 10.248 14.8929V10.7163C10.248 10.1093 9.77737 9.61607 9.19818 9.61607H6.79915C6.21996 9.61607 5.74937 10.1093 5.74937 10.7163V14.8998C5.74937 14.9929 5.67697 15.0688 5.58812 15.0688H3.26477C3.2549 15.0688 3.24832 15.0688 3.23845 15.0688C3.22857 15.0688 3.22199 15.0688 3.21212 15.0688C3.08707 15.0688 2.98176 14.9619 2.98176 14.8274V10.5266V6.84315V5.76364L7.97727 1.08692L13.0156 5.80848V9.5195Z" fill="#41A9A5"/>
</svg>
